<svg width="160" height="35" viewBox="0 0 160 35" fill="none" xmlns="http://www.w3.org/2000/svg">
<path fill-rule="evenodd" clip-rule="evenodd" d="M17.5214 0.0948623C17.2474 0.143338 16.8123 0.254672 16.5544 0.342208C16.2965 0.429745 12.6474 1.95985 8.44526 3.74239C0.194528 7.24244 0.469793 7.11093 0.175599 7.69234C0.00324361 8.0329 -0.0536023 8.69337 0.0595626 9.03983C0.165109 9.36272 0.442132 9.74275 0.691376 9.90636C0.918702 10.0555 15.8537 16.3407 16.5479 16.5793C17.7916 17.0067 19.2777 17.0476 20.613 16.691C20.9739 16.5946 23.583 15.4865 28.6301 13.2861C34.7411 10.6218 36.1596 9.98261 36.372 9.79742C36.8876 9.34781 37.0881 8.64828 36.8931 7.97904C36.8133 7.70544 36.7281 7.57352 36.461 7.31079L36.1282 6.98345L28.7734 3.74168C24.7282 1.95874 21.2076 0.428868 20.9497 0.341975C19.9473 0.00428428 18.5868 -0.093835 17.5214 0.0948623ZM153.015 2.45168V4.32286H151.139H149.264V5.55083V6.77879H151.139H153.015V8.67922V10.5796H154.244H155.474L155.49 8.69383L155.505 6.80803L157.395 6.79259L159.285 6.77715V5.55001V4.32286H157.381H155.476V2.45168V0.580493H154.245H153.015V2.45168ZM97.9169 5.48762C97.3049 5.68292 96.857 6.06739 96.5383 6.6712C96.3853 6.96106 96.3735 7.0317 96.3735 7.65591C96.3735 8.26358 96.3887 8.3607 96.531 8.66378C97.2008 10.0898 99.3597 10.4305 100.502 9.29062C101.353 8.44128 101.404 7.0652 100.618 6.17347C100.331 5.84817 99.9231 5.58796 99.5128 5.46826C99.0866 5.34395 98.3388 5.35301 97.9169 5.48762ZM122.716 17.0703V27.5373H124.709H126.701V17.0703V6.60337H124.709H122.716V17.0703ZM51.6877 7.53844C49.6786 7.7014 48.0535 8.39193 46.9611 9.54692C46.1688 10.3846 45.7241 11.3687 45.5881 12.585C45.4596 13.7354 45.684 15.0308 46.1575 15.8716C46.3674 16.2443 47.1563 17.0672 47.6222 17.3992C48.3543 17.921 48.9878 18.164 52.7009 19.347C53.8134 19.7014 54.351 19.9438 54.8332 20.3084C55.4898 20.8048 55.7725 21.4161 55.7143 22.2131C55.6966 22.456 55.6406 22.7693 55.5899 22.9094C55.3576 23.5514 54.7389 24.0891 53.9464 24.3377C53.3496 24.5249 52.1239 24.5196 51.5705 24.3274C50.8611 24.0811 50.3491 23.6554 50.0546 23.0671C49.8964 22.7511 49.7554 22.2621 49.7544 22.026L49.7537 21.8652H47.6118H45.4698L45.5079 22.2307C45.6659 23.7442 46.174 24.7991 47.2221 25.7892C48.561 27.0539 50.4641 27.7082 52.8138 27.7115C56.3942 27.7166 58.8674 26.0758 59.6715 23.1619C59.7741 22.7903 59.7952 22.5522 59.794 21.7775C59.7924 20.6837 59.6947 20.2175 59.2983 19.4129C59.0939 18.9979 58.9564 18.8213 58.4335 18.3019C57.3775 17.2528 56.9411 17.055 52.684 15.6963C52.1199 15.5162 51.4738 15.2781 51.2482 15.1672C50.4437 14.7716 49.9008 14.2234 49.746 13.6504C49.7111 13.5213 49.693 13.1761 49.7059 12.8834C49.7457 11.972 50.1136 11.4044 50.9036 11.0356C51.7019 10.6628 52.9912 10.6911 53.8228 11.0996C54.52 11.4421 55.0594 12.1039 55.2092 12.8004L55.2723 13.094H57.4413H59.6103L59.5717 12.7871C59.4896 12.1334 59.2877 11.4646 58.9831 10.8364C58.7261 10.3066 58.5837 10.0972 58.2106 9.70053C57.1522 8.57525 55.9158 7.93051 54.2956 7.65895C53.5106 7.52738 52.4361 7.47774 51.6877 7.53844ZM138.319 7.54615C133.474 7.9439 129.686 11.6005 129.166 16.381C128.872 19.0837 129.571 21.7707 131.086 23.7656C131.481 24.2847 132.412 25.2222 132.915 25.6064C134.172 26.5674 135.632 27.2206 137.253 27.5476C137.841 27.6662 138.087 27.6826 139.243 27.6796C140.357 27.6766 140.655 27.6565 141.17 27.5498C141.505 27.4804 141.796 27.434 141.817 27.4469C141.838 27.4598 142.513 28.261 143.318 29.2274L144.781 30.9844L147.236 30.9858C149.57 30.9872 149.688 30.9822 149.604 30.8849C149.556 30.8287 148.547 29.6922 147.361 28.3593L145.205 25.9362L145.351 25.8157C146.233 25.0887 146.47 24.8705 146.848 24.4401C147.677 23.4943 148.459 22.1273 148.849 20.9449C149.692 18.3863 149.489 15.3447 148.321 13.0126C147.302 10.9788 145.783 9.48084 143.754 8.50952C142.547 7.93133 141.466 7.64778 140.063 7.54101C139.195 7.47493 139.186 7.47499 138.319 7.54615ZM140.312 11.1341C142.925 11.527 144.736 13.4147 145.192 16.219C145.303 16.9006 145.303 18.2952 145.192 18.9707C144.817 21.2554 143.574 22.9679 141.739 23.7303C140.883 24.0858 140.388 24.1717 139.213 24.1682C138.262 24.1653 138.101 24.1496 137.572 24.0091C136.246 23.6565 135.258 23.0008 134.483 21.9595C133.606 20.781 133.189 19.3877 133.187 17.6258C133.184 15.5777 133.738 14.0161 134.904 12.7812C136.187 11.423 138.186 10.8143 140.312 11.1341ZM68.2141 11.7467C65.324 12.274 63.0706 14.1683 62.1807 16.8186C61.6999 18.2506 61.6036 19.9838 61.9144 21.6154C62.2006 23.1177 62.9206 24.4813 63.9927 25.551C65.0586 26.6145 66.2445 27.2431 67.8695 27.6059C68.3992 27.7242 68.633 27.7416 69.6792 27.7406C71.0024 27.7392 71.4755 27.6737 72.4901 27.3511C74.0292 26.8618 75.4511 25.8389 76.3593 24.5677C76.8158 23.9288 77.3629 22.8169 77.5597 22.1284C78.0168 20.5286 77.9691 18.4246 77.44 16.8483C77.068 15.7401 76.4347 14.7313 75.5762 13.8795C74.5348 12.8462 73.3245 12.1898 71.789 11.8257C70.9192 11.6194 69.1289 11.5798 68.2141 11.7467ZM85.561 11.7221C83.9433 11.9773 82.3573 12.7993 81.3146 13.923C80.3362 14.9775 79.662 16.363 79.3706 17.9182C79.2225 18.7085 79.2182 20.654 79.3627 21.4267C79.696 23.2076 80.5005 24.7526 81.6449 25.8098C82.382 26.4907 83.3039 27.0359 84.2717 27.3631C85.0041 27.6108 85.6721 27.7192 86.6745 27.753C89.77 27.8573 92.1069 26.6856 93.5363 24.3126C93.8124 23.8543 94.2597 22.8065 94.3308 22.4513L94.3663 22.2745H92.2199C90.6665 22.2745 90.0735 22.2927 90.0735 22.3404C90.0735 22.3767 89.99 22.5756 89.888 22.7825C89.5291 23.5098 88.8105 24.0739 87.9638 24.2929C87.3853 24.4425 86.1969 24.391 85.6696 24.1936C84.3883 23.7137 83.5686 22.5133 83.3324 20.7709C83.2413 20.0991 83.289 18.6743 83.423 18.0644C83.6924 16.8381 84.3728 15.8371 85.2668 15.3516C86.1539 14.8698 87.595 14.8424 88.5109 15.2899C89.1395 15.5969 89.7079 16.1844 89.9932 16.8218L90.1307 17.1288H92.2411C93.9908 17.1288 94.3516 17.115 94.3516 17.0486C94.3516 16.8963 94.0498 16.0457 93.8285 15.5744C93.0425 13.9002 91.571 12.6099 89.7686 12.0142C88.6807 11.6547 86.8111 11.5249 85.561 11.7221ZM108.915 11.727C108.215 11.853 107.742 12.0083 107.095 12.3243C104.993 13.3509 103.552 15.4631 103.167 18.0806C103.031 18.9988 103.078 20.9469 103.254 21.7576C103.468 22.7391 103.881 23.804 104.304 24.4634C105.676 26.602 107.761 27.7718 110.2 27.7709C112.125 27.7702 113.64 27.1443 114.89 25.8336C115.162 25.5485 115.399 25.3152 115.417 25.3152C115.435 25.3152 115.449 25.8152 115.449 26.4262V27.5373H117.412H119.376V19.7017V11.8661H117.412H115.449V12.9479C115.449 13.5428 115.439 14.0296 115.426 14.0296C115.413 14.0296 115.142 13.773 114.824 13.4595C113.893 12.5419 112.892 12.0016 111.66 11.7526C110.944 11.6079 109.644 11.5957 108.915 11.727ZM96.7544 19.7017V27.5373H98.7177H100.681V19.7017V11.8661H98.7177H96.7544V19.7017ZM1.94873 15.3429C1.32905 15.611 0.71681 15.9134 0.588232 16.015C0.443303 16.1295 0.2839 16.3426 0.169094 16.5753C-0.00402288 16.9262 -0.0144549 16.9829 0.00957287 17.4399C0.0302016 17.8316 0.0655992 17.9803 0.187555 18.1867C0.374737 18.5036 0.599543 18.7185 0.90704 18.8746C1.4905 19.1708 16.4304 25.3972 16.8478 25.5181C17.9352 25.8331 19.3078 25.8575 20.4335 25.5819C21.1152 25.415 20.8334 25.534 29.5497 21.7305C33.1194 20.1728 36.133 18.8357 36.2467 18.7591C36.5205 18.5748 36.8385 18.1031 36.9244 17.7539C37.0656 17.1806 36.8663 16.5007 36.4366 16.0892C36.2457 15.9064 34.1422 14.9068 33.9485 14.9068C33.9034 14.9068 31.3559 16.0022 28.2872 17.341C25.2186 18.6798 22.4837 19.8521 22.2097 19.946C20.0067 20.7016 17.5936 20.7105 15.3932 19.9712C15.0649 19.8609 12.1854 18.674 8.99444 17.3337C5.80343 15.9933 3.16624 14.8874 3.134 14.8761C3.10177 14.8648 2.56841 15.0749 1.94873 15.3429ZM70.4773 15.1139C71.681 15.3225 72.7459 16.1255 73.3177 17.2556C73.8442 18.2963 73.9648 20.0319 73.6014 21.3401C73.2906 22.4594 72.5008 23.4478 71.5546 23.9019C70.9016 24.2151 70.4333 24.3194 69.6792 24.3194C68.9138 24.3194 68.45 24.2133 67.8465 23.9C66.7482 23.3298 66.0934 22.3425 65.8361 20.8681C65.7054 20.1192 65.7476 18.76 65.9224 18.0936C66.4077 16.2427 67.839 15.087 69.7155 15.0309C69.8482 15.027 70.1911 15.0643 70.4773 15.1139ZM112.501 15.2734C113.651 15.6709 114.473 16.4059 114.977 17.4859C115.616 18.8544 115.561 20.8125 114.846 22.1839C114.524 22.8019 113.831 23.5061 113.252 23.8059C112.535 24.1762 112.061 24.2919 111.259 24.2919C110.642 24.2919 110.492 24.2712 110.04 24.1232C108.966 23.7719 108.125 23.0252 107.569 21.9289C106.99 20.7858 106.949 18.845 107.477 17.5838C107.926 16.5122 108.917 15.6014 109.999 15.265C110.546 15.0948 110.599 15.0888 111.376 15.1093C111.94 15.124 112.163 15.1565 112.501 15.2734ZM2.07913 24.1377C0.865841 24.6543 0.715755 24.7344 0.456079 25.0033C0.128012 25.3429 0.00125116 25.6744 0.00125116 26.1923C0.00125116 26.8657 0.326798 27.4294 0.877737 27.7102C0.990551 27.7676 4.54965 29.2682 8.7868 31.0447C13.9413 33.2058 16.6759 34.3229 17.05 34.4205C18.1542 34.7082 19.7658 34.6628 20.8618 34.313C21.0713 34.2461 24.6001 32.7283 28.7034 30.9402C34.0877 28.5939 36.2275 27.6349 36.3917 27.4947C36.9484 27.0192 37.1213 26.1045 36.784 25.4191C36.6934 25.2349 36.5167 24.9968 36.3915 24.8898C36.2578 24.7756 35.7037 24.4942 35.0501 24.2084L33.9366 23.7215L28.2903 26.1843C25.1848 27.5388 22.4474 28.714 22.2071 28.7959C20.9429 29.2263 19.9214 29.3733 18.4592 29.335C17.2496 29.3034 16.5485 29.1904 15.5207 28.8617C15.1867 28.7549 12.2706 27.558 9.04038 26.202C5.81023 24.8459 3.13348 23.7369 3.09204 23.7375C3.05067 23.738 2.59484 23.9181 2.07913 24.1377Z" fill="white"/>
</svg>
