<svg width="132" height="26" viewBox="0 0 132 26" fill="none" xmlns="http://www.w3.org/2000/svg">
<path d="M37.4684 19.1213C36.671 19.1213 35.9546 18.9827 35.319 18.7053C34.695 18.4164 34.2039 18.0236 33.8457 17.5267C33.4875 17.0182 33.3026 16.4347 33.291 15.776H34.9724C35.0302 16.3422 35.2613 16.8218 35.6657 17.2147C36.0817 17.596 36.6826 17.7867 37.4684 17.7867C38.2195 17.7867 38.8088 17.6018 39.2364 17.232C39.6755 16.8507 39.895 16.3653 39.895 15.776C39.895 15.3138 39.7679 14.9382 39.5137 14.6493C39.2595 14.3604 38.9417 14.1409 38.5604 13.9907C38.179 13.8404 37.6648 13.6787 37.0177 13.5053C36.2204 13.2973 35.579 13.0893 35.0937 12.8813C34.6199 12.6733 34.2097 12.3498 33.863 11.9107C33.5279 11.46 33.3604 10.8591 33.3604 10.108C33.3604 9.44933 33.5279 8.86578 33.863 8.35733C34.1982 7.84889 34.6662 7.456 35.267 7.17867C35.8795 6.90133 36.5786 6.76267 37.3644 6.76267C38.4968 6.76267 39.4213 7.04578 40.1377 7.612C40.8657 8.17822 41.2759 8.92933 41.3684 9.86533H39.635C39.5773 9.40311 39.3346 8.99867 38.907 8.652C38.4795 8.29378 37.9133 8.11467 37.2084 8.11467C36.5497 8.11467 36.0124 8.288 35.5964 8.63467C35.1804 8.96978 34.9724 9.44355 34.9724 10.056C34.9724 10.4951 35.0937 10.8533 35.3364 11.1307C35.5906 11.408 35.8968 11.6218 36.255 11.772C36.6248 11.9107 37.139 12.0724 37.7977 12.2573C38.595 12.4769 39.2364 12.6964 39.7217 12.916C40.207 13.124 40.623 13.4533 40.9697 13.904C41.3164 14.3431 41.4897 14.944 41.4897 15.7067C41.4897 16.296 41.3337 16.8507 41.0217 17.3707C40.7097 17.8907 40.2475 18.3124 39.635 18.636C39.0226 18.9596 38.3004 19.1213 37.4684 19.1213ZM47.4336 19.156C46.5438 19.156 45.7349 18.9538 45.0069 18.5493C44.2904 18.1449 43.7242 17.5729 43.3082 16.8333C42.9038 16.0822 42.7016 15.2156 42.7016 14.2333C42.7016 13.2627 42.9096 12.4076 43.3256 11.668C43.7531 10.9169 44.3309 10.3449 45.0589 9.952C45.7869 9.54755 46.6016 9.34533 47.5029 9.34533C48.4042 9.34533 49.2189 9.54755 49.9469 9.952C50.6749 10.3449 51.2469 10.9111 51.6629 11.6507C52.0904 12.3902 52.3042 13.2511 52.3042 14.2333C52.3042 15.2156 52.0847 16.0822 51.6456 16.8333C51.218 17.5729 50.6344 18.1449 49.8949 18.5493C49.1553 18.9538 48.3349 19.156 47.4336 19.156ZM47.4336 17.7693C47.9998 17.7693 48.5313 17.6364 49.0282 17.3707C49.5251 17.1049 49.9238 16.7062 50.2242 16.1747C50.5362 15.6431 50.6922 14.996 50.6922 14.2333C50.6922 13.4707 50.542 12.8236 50.2416 12.292C49.9411 11.7604 49.5482 11.3676 49.0629 11.1133C48.5776 10.8476 48.0518 10.7147 47.4856 10.7147C46.9078 10.7147 46.3762 10.8476 45.8909 11.1133C45.4171 11.3676 45.0358 11.7604 44.7469 12.292C44.458 12.8236 44.3136 13.4707 44.3136 14.2333C44.3136 15.0076 44.4522 15.6604 44.7296 16.192C45.0184 16.7236 45.3998 17.1222 45.8736 17.388C46.3473 17.6422 46.8673 17.7693 47.4336 17.7693ZM53.2688 14.2333C53.2688 13.2511 53.4652 12.396 53.8581 11.668C54.251 10.9284 54.7941 10.3564 55.4875 9.952C56.1923 9.54755 56.9955 9.34533 57.8968 9.34533C59.0639 9.34533 60.023 9.62844 60.7741 10.1947C61.5368 10.7609 62.0395 11.5467 62.2821 12.552H60.5835C60.4217 11.9742 60.1039 11.5178 59.6301 11.1827C59.1679 10.8476 58.5901 10.68 57.8968 10.68C56.9955 10.68 56.2675 10.992 55.7128 11.616C55.1581 12.2284 54.8808 13.1009 54.8808 14.2333C54.8808 15.3773 55.1581 16.2613 55.7128 16.8853C56.2675 17.5093 56.9955 17.8213 57.8968 17.8213C58.5901 17.8213 59.1679 17.6596 59.6301 17.336C60.0923 17.0124 60.4101 16.5502 60.5835 15.9493H62.2821C62.0279 16.92 61.5195 17.7 60.7568 18.2893C59.9941 18.8671 59.0408 19.156 57.8968 19.156C56.9955 19.156 56.1923 18.9538 55.4875 18.5493C54.7941 18.1449 54.251 17.5729 53.8581 16.8333C53.4652 16.0938 53.2688 15.2271 53.2688 14.2333ZM64.6814 7.95867C64.381 7.95867 64.1268 7.85467 63.9188 7.64667C63.7108 7.43867 63.6068 7.18444 63.6068 6.884C63.6068 6.58355 63.7108 6.32933 63.9188 6.12133C64.1268 5.91333 64.381 5.80933 64.6814 5.80933C64.9703 5.80933 65.213 5.91333 65.4094 6.12133C65.6174 6.32933 65.7214 6.58355 65.7214 6.884C65.7214 7.18444 65.6174 7.43867 65.4094 7.64667C65.213 7.85467 64.9703 7.95867 64.6814 7.95867ZM65.4441 9.50133V19H63.8668V9.50133H65.4441ZM67.0231 14.216C67.0231 13.2453 67.2195 12.396 67.6124 11.668C68.0053 10.9284 68.5426 10.3564 69.2244 9.952C69.9177 9.54755 70.6862 9.34533 71.5297 9.34533C72.3617 9.34533 73.084 9.52444 73.6964 9.88267C74.3088 10.2409 74.7653 10.6916 75.0657 11.2347V9.50133H76.6604V19H75.0657V17.232C74.7537 17.7867 74.2857 18.2489 73.6617 18.6187C73.0493 18.9769 72.3328 19.156 71.5124 19.156C70.6688 19.156 69.9062 18.948 69.2244 18.532C68.5426 18.116 68.0053 17.5324 67.6124 16.7813C67.2195 16.0302 67.0231 15.1751 67.0231 14.216ZM75.0657 14.2333C75.0657 13.5169 74.9213 12.8929 74.6324 12.3613C74.3435 11.8298 73.9506 11.4253 73.4537 11.148C72.9684 10.8591 72.4311 10.7147 71.8417 10.7147C71.2524 10.7147 70.7151 10.8533 70.2297 11.1307C69.7444 11.408 69.3573 11.8124 69.0684 12.344C68.7795 12.8756 68.6351 13.4996 68.6351 14.216C68.6351 14.944 68.7795 15.5796 69.0684 16.1227C69.3573 16.6542 69.7444 17.0644 70.2297 17.3533C70.7151 17.6307 71.2524 17.7693 71.8417 17.7693C72.4311 17.7693 72.9684 17.6307 73.4537 17.3533C73.9506 17.0644 74.3435 16.6542 74.6324 16.1227C74.9213 15.5796 75.0657 14.9498 75.0657 14.2333ZM84.8553 12.7773C85.2944 12.8467 85.693 13.0258 86.0513 13.3147C86.421 13.6036 86.7099 13.9618 86.9179 14.3893C87.1375 14.8169 87.2473 15.2733 87.2473 15.7587C87.2473 16.3711 87.0913 16.9258 86.7793 17.4227C86.4673 17.908 86.0108 18.2951 85.4099 18.584C84.8206 18.8613 84.1215 19 83.3126 19H78.8059V6.91867H83.1393C83.9597 6.91867 84.6588 7.05733 85.2366 7.33467C85.8144 7.60044 86.2477 7.96444 86.5366 8.42667C86.8255 8.88889 86.9699 9.40889 86.9699 9.98667C86.9699 10.7031 86.7735 11.2982 86.3806 11.772C85.9993 12.2342 85.4908 12.5693 84.8553 12.7773ZM80.3833 12.136H83.0353C83.7748 12.136 84.3468 11.9627 84.7513 11.616C85.1557 11.2693 85.3579 10.7898 85.3579 10.1773C85.3579 9.56489 85.1557 9.08533 84.7513 8.73867C84.3468 8.392 83.7633 8.21867 83.0006 8.21867H80.3833V12.136ZM83.1739 17.7C83.9597 17.7 84.5722 17.5151 85.0113 17.1453C85.4504 16.7756 85.6699 16.2613 85.6699 15.6027C85.6699 14.9324 85.4388 14.4067 84.9766 14.0253C84.5144 13.6324 83.8962 13.436 83.1219 13.436H80.3833V17.7H83.1739ZM93.0588 19.156C92.169 19.156 91.3601 18.9538 90.6321 18.5493C89.9157 18.1449 89.3495 17.5729 88.9335 16.8333C88.529 16.0822 88.3268 15.2156 88.3268 14.2333C88.3268 13.2627 88.5348 12.4076 88.9508 11.668C89.3784 10.9169 89.9561 10.3449 90.6841 9.952C91.4121 9.54755 92.2268 9.34533 93.1281 9.34533C94.0295 9.34533 94.8441 9.54755 95.5721 9.952C96.3001 10.3449 96.8721 10.9111 97.2881 11.6507C97.7157 12.3902 97.9295 13.2511 97.9295 14.2333C97.9295 15.2156 97.7099 16.0822 97.2708 16.8333C96.8433 17.5729 96.2597 18.1449 95.5201 18.5493C94.7806 18.9538 93.9601 19.156 93.0588 19.156ZM93.0588 17.7693C93.625 17.7693 94.1566 17.6364 94.6535 17.3707C95.1504 17.1049 95.549 16.7062 95.8495 16.1747C96.1615 15.6431 96.3175 14.996 96.3175 14.2333C96.3175 13.4707 96.1673 12.8236 95.8668 12.292C95.5664 11.7604 95.1735 11.3676 94.6881 11.1133C94.2028 10.8476 93.677 10.7147 93.1108 10.7147C92.533 10.7147 92.0015 10.8476 91.5161 11.1133C91.0424 11.3676 90.661 11.7604 90.3721 12.292C90.0833 12.8236 89.9388 13.4707 89.9388 14.2333C89.9388 15.0076 90.0775 15.6604 90.3548 16.192C90.6437 16.7236 91.025 17.1222 91.4988 17.388C91.9726 17.6422 92.4926 17.7693 93.0588 17.7693ZM98.8941 14.216C98.8941 13.2453 99.0905 12.396 99.4834 11.668C99.8763 10.9284 100.414 10.3564 101.095 9.952C101.789 9.54755 102.557 9.34533 103.401 9.34533C104.233 9.34533 104.955 9.52444 105.567 9.88267C106.18 10.2409 106.636 10.6916 106.937 11.2347V9.50133H108.531V19H106.937V17.232C106.625 17.7867 106.157 18.2489 105.533 18.6187C104.92 18.9769 104.204 19.156 103.383 19.156C102.54 19.156 101.777 18.948 101.095 18.532C100.414 18.116 99.8763 17.5324 99.4834 16.7813C99.0905 16.0302 98.8941 15.1751 98.8941 14.216ZM106.937 14.2333C106.937 13.5169 106.792 12.8929 106.503 12.3613C106.214 11.8298 105.822 11.4253 105.325 11.148C104.839 10.8591 104.302 10.7147 103.713 10.7147C103.123 10.7147 102.586 10.8533 102.101 11.1307C101.615 11.408 101.228 11.8124 100.939 12.344C100.65 12.8756 100.506 13.4996 100.506 14.216C100.506 14.944 100.65 15.5796 100.939 16.1227C101.228 16.6542 101.615 17.0644 102.101 17.3533C102.586 17.6307 103.123 17.7693 103.713 17.7693C104.302 17.7693 104.839 17.6307 105.325 17.3533C105.822 17.0644 106.214 16.6542 106.503 16.1227C106.792 15.5796 106.937 14.9498 106.937 14.2333ZM112.254 11.044C112.532 10.5009 112.924 10.0791 113.433 9.77867C113.953 9.47822 114.583 9.328 115.322 9.328V10.9573H114.906C113.138 10.9573 112.254 11.9164 112.254 13.8347V19H110.677V9.50133H112.254V11.044ZM116.034 14.216C116.034 13.2453 116.23 12.396 116.623 11.668C117.016 10.9284 117.553 10.3564 118.235 9.952C118.928 9.54755 119.703 9.34533 120.558 9.34533C121.297 9.34533 121.985 9.51867 122.62 9.86533C123.256 10.2004 123.741 10.6453 124.076 11.2V6.17333H125.671V19H124.076V17.2147C123.764 17.7809 123.302 18.2489 122.69 18.6187C122.077 18.9769 121.361 19.156 120.54 19.156C119.697 19.156 118.928 18.948 118.235 18.532C117.553 18.116 117.016 17.5324 116.623 16.7813C116.23 16.0302 116.034 15.1751 116.034 14.216ZM124.076 14.2333C124.076 13.5169 123.932 12.8929 123.643 12.3613C123.354 11.8298 122.961 11.4253 122.464 11.148C121.979 10.8591 121.442 10.7147 120.852 10.7147C120.263 10.7147 119.726 10.8533 119.24 11.1307C118.755 11.408 118.368 11.8124 118.079 12.344C117.79 12.8756 117.646 13.4996 117.646 14.216C117.646 14.944 117.79 15.5796 118.079 16.1227C118.368 16.6542 118.755 17.0644 119.24 17.3533C119.726 17.6307 120.263 17.7693 120.852 17.7693C121.442 17.7693 121.979 17.6307 122.464 17.3533C122.961 17.0644 123.354 16.6542 123.643 16.1227C123.932 15.5796 124.076 14.9498 124.076 14.2333Z" fill="#3A4569"/>
<path d="M128.943 19.1387C128.423 19.1387 127.996 18.9884 127.661 18.688C127.337 18.376 127.175 17.9947 127.175 17.544C127.175 17.0818 127.337 16.6947 127.661 16.3827C127.996 16.0707 128.423 15.9147 128.943 15.9147C129.452 15.9147 129.868 16.0707 130.191 16.3827C130.526 16.6947 130.694 17.0818 130.694 17.544C130.694 17.9947 130.526 18.376 130.191 18.688C129.868 18.9884 129.452 19.1387 128.943 19.1387Z" fill="#237CFB"/>
<rect width="25" height="26" rx="5.15934" fill="#237CFB"/>
<circle cx="12.5001" cy="7.10361" r="1.36661" fill="white" stroke="white" stroke-width="0.95202"/>
<circle cx="6.60362" cy="13" r="1.36661" fill="white" stroke="white" stroke-width="0.95202"/>
<path d="M6.60368 13H18.3964" stroke="white" stroke-width="1.4741"/>
<path d="M12.5 18.8964V7.10361" stroke="white" stroke-width="1.4741"/>
<circle cx="18.3964" cy="13" r="1.36661" fill="white" stroke="white" stroke-width="0.95202"/>
<circle cx="12.5001" cy="18.8964" r="1.36661" fill="white" stroke="white" stroke-width="0.95202"/>
</svg>
