<svg width="167" height="37" viewBox="0 0 167 37" fill="none" xmlns="http://www.w3.org/2000/svg">
<path d="M47.556 24.154C46.544 24.154 45.6347 23.978 44.828 23.626C44.036 23.2593 43.4127 22.7607 42.958 22.13C42.5033 21.4847 42.2687 20.744 42.254 19.908H44.388C44.4613 20.6267 44.7547 21.2353 45.268 21.734C45.796 22.218 46.5587 22.46 47.556 22.46C48.5093 22.46 49.2573 22.2253 49.8 21.756C50.3573 21.272 50.636 20.656 50.636 19.908C50.636 19.3213 50.4747 18.8447 50.152 18.478C49.8293 18.1113 49.426 17.8327 48.942 17.642C48.458 17.4513 47.8053 17.246 46.984 17.026C45.972 16.762 45.158 16.498 44.542 16.234C43.9407 15.97 43.42 15.5593 42.98 15.002C42.5547 14.43 42.342 13.6673 42.342 12.714C42.342 11.878 42.5547 11.1373 42.98 10.492C43.4053 9.84667 43.9993 9.348 44.762 8.996C45.5393 8.644 46.4267 8.468 47.424 8.468C48.8613 8.468 50.0347 8.82733 50.944 9.546C51.868 10.2647 52.3887 11.218 52.506 12.406H50.306C50.2327 11.8193 49.9247 11.306 49.382 10.866C48.8393 10.4113 48.1207 10.184 47.226 10.184C46.39 10.184 45.708 10.404 45.18 10.844C44.652 11.2693 44.388 11.8707 44.388 12.648C44.388 13.2053 44.542 13.66 44.85 14.012C45.1727 14.364 45.5613 14.6353 46.016 14.826C46.4853 15.002 47.138 15.2073 47.974 15.442C48.986 15.7207 49.8 15.9993 50.416 16.278C51.032 16.542 51.56 16.96 52 17.532C52.44 18.0893 52.66 18.852 52.66 19.82C52.66 20.568 52.462 21.272 52.066 21.932C51.67 22.592 51.0833 23.1273 50.306 23.538C49.5287 23.9487 48.612 24.154 47.556 24.154ZM60.2041 24.198C59.0748 24.198 58.0481 23.9413 57.1241 23.428C56.2148 22.9147 55.4961 22.1887 54.9681 21.25C54.4548 20.2967 54.1981 19.1967 54.1981 17.95C54.1981 16.718 54.4621 15.6327 54.9901 14.694C55.5328 13.7407 56.2661 13.0147 57.1901 12.516C58.1141 12.0027 59.1481 11.746 60.2921 11.746C61.4361 11.746 62.4701 12.0027 63.3941 12.516C64.3181 13.0147 65.0441 13.7333 65.5721 14.672C66.1148 15.6107 66.3861 16.7033 66.3861 17.95C66.3861 19.1967 66.1074 20.2967 65.5501 21.25C65.0074 22.1887 64.2668 22.9147 63.3281 23.428C62.3894 23.9413 61.3481 24.198 60.2041 24.198ZM60.2041 22.438C60.9228 22.438 61.5974 22.2693 62.2281 21.932C62.8588 21.5947 63.3648 21.0887 63.7461 20.414C64.1421 19.7393 64.3401 18.918 64.3401 17.95C64.3401 16.982 64.1494 16.1607 63.7681 15.486C63.3868 14.8113 62.8881 14.3127 62.2721 13.99C61.6561 13.6527 60.9888 13.484 60.2701 13.484C59.5368 13.484 58.8621 13.6527 58.2461 13.99C57.6448 14.3127 57.1608 14.8113 56.7941 15.486C56.4274 16.1607 56.2441 16.982 56.2441 17.95C56.2441 18.9327 56.4201 19.7613 56.7721 20.436C57.1388 21.1107 57.6228 21.6167 58.2241 21.954C58.8254 22.2767 59.4854 22.438 60.2041 22.438ZM67.6104 17.95C67.6104 16.7033 67.8597 15.618 68.3584 14.694C68.857 13.7553 69.5464 13.0293 70.4264 12.516C71.321 12.0027 72.3404 11.746 73.4844 11.746C74.9657 11.746 76.183 12.1053 77.1364 12.824C78.1044 13.5427 78.7424 14.54 79.0504 15.816H76.8944C76.689 15.0827 76.2857 14.5033 75.6844 14.078C75.0977 13.6527 74.3644 13.44 73.4844 13.44C72.3404 13.44 71.4164 13.836 70.7124 14.628C70.0084 15.4053 69.6564 16.5127 69.6564 17.95C69.6564 19.402 70.0084 20.524 70.7124 21.316C71.4164 22.108 72.3404 22.504 73.4844 22.504C74.3644 22.504 75.0977 22.2987 75.6844 21.888C76.271 21.4773 76.6744 20.8907 76.8944 20.128H79.0504C78.7277 21.36 78.0824 22.35 77.1144 23.098C76.1464 23.8313 74.9364 24.198 73.4844 24.198C72.3404 24.198 71.321 23.9413 70.4264 23.428C69.5464 22.9147 68.857 22.1887 68.3584 21.25C67.8597 20.3113 67.6104 19.2113 67.6104 17.95ZM82.0957 9.986C81.7143 9.986 81.3917 9.854 81.1277 9.59C80.8637 9.326 80.7317 9.00333 80.7317 8.622C80.7317 8.24067 80.8637 7.918 81.1277 7.654C81.3917 7.39 81.7143 7.258 82.0957 7.258C82.4623 7.258 82.7703 7.39 83.0197 7.654C83.2837 7.918 83.4157 8.24067 83.4157 8.622C83.4157 9.00333 83.2837 9.326 83.0197 9.59C82.7703 9.854 82.4623 9.986 82.0957 9.986ZM83.0637 11.944V24H81.0617V11.944H83.0637ZM85.0677 17.928C85.0677 16.696 85.3171 15.618 85.8157 14.694C86.3144 13.7553 86.9964 13.0293 87.8617 12.516C88.7417 12.0027 89.7171 11.746 90.7877 11.746C91.8437 11.746 92.7604 11.9733 93.5377 12.428C94.3151 12.8827 94.8944 13.4547 95.2757 14.144V11.944H97.2997V24H95.2757V21.756C94.8797 22.46 94.2857 23.0467 93.4937 23.516C92.7164 23.9707 91.8071 24.198 90.7657 24.198C89.6951 24.198 88.7271 23.934 87.8617 23.406C86.9964 22.878 86.3144 22.1373 85.8157 21.184C85.3171 20.2307 85.0677 19.1453 85.0677 17.928ZM95.2757 17.95C95.2757 17.0407 95.0924 16.2487 94.7257 15.574C94.3591 14.8993 93.8604 14.386 93.2297 14.034C92.6137 13.6673 91.9317 13.484 91.1837 13.484C90.4357 13.484 89.7537 13.66 89.1377 14.012C88.5217 14.364 88.0304 14.8773 87.6637 15.552C87.2971 16.2267 87.1137 17.0187 87.1137 17.928C87.1137 18.852 87.2971 19.6587 87.6637 20.348C88.0304 21.0227 88.5217 21.5433 89.1377 21.91C89.7537 22.262 90.4357 22.438 91.1837 22.438C91.9317 22.438 92.6137 22.262 93.2297 21.91C93.8604 21.5433 94.3591 21.0227 94.7257 20.348C95.0924 19.6587 95.2757 18.8593 95.2757 17.95ZM107.701 16.102C108.258 16.19 108.764 16.4173 109.219 16.784C109.688 17.1507 110.055 17.6053 110.319 18.148C110.598 18.6907 110.737 19.27 110.737 19.886C110.737 20.6633 110.539 21.3673 110.143 21.998C109.747 22.614 109.168 23.1053 108.405 23.472C107.657 23.824 106.77 24 105.743 24H100.023V8.666H105.523C106.564 8.666 107.452 8.842 108.185 9.194C108.918 9.53133 109.468 9.99333 109.835 10.58C110.202 11.1667 110.385 11.8267 110.385 12.56C110.385 13.4693 110.136 14.2247 109.637 14.826C109.153 15.4127 108.508 15.838 107.701 16.102ZM102.025 15.288H105.391C106.33 15.288 107.056 15.068 107.569 14.628C108.082 14.188 108.339 13.5793 108.339 12.802C108.339 12.0247 108.082 11.416 107.569 10.976C107.056 10.536 106.315 10.316 105.347 10.316H102.025V15.288ZM105.567 22.35C106.564 22.35 107.342 22.1153 107.899 21.646C108.456 21.1767 108.735 20.524 108.735 19.688C108.735 18.8373 108.442 18.17 107.855 17.686C107.268 17.1873 106.484 16.938 105.501 16.938H102.025V22.35H105.567ZM118.113 24.198C116.984 24.198 115.957 23.9413 115.033 23.428C114.124 22.9147 113.405 22.1887 112.877 21.25C112.364 20.2967 112.107 19.1967 112.107 17.95C112.107 16.718 112.371 15.6327 112.899 14.694C113.442 13.7407 114.175 13.0147 115.099 12.516C116.023 12.0027 117.057 11.746 118.201 11.746C119.345 11.746 120.379 12.0027 121.303 12.516C122.227 13.0147 122.953 13.7333 123.481 14.672C124.024 15.6107 124.295 16.7033 124.295 17.95C124.295 19.1967 124.016 20.2967 123.459 21.25C122.916 22.1887 122.176 22.9147 121.237 23.428C120.298 23.9413 119.257 24.198 118.113 24.198ZM118.113 22.438C118.832 22.438 119.506 22.2693 120.137 21.932C120.768 21.5947 121.274 21.0887 121.655 20.414C122.051 19.7393 122.249 18.918 122.249 17.95C122.249 16.982 122.058 16.1607 121.677 15.486C121.296 14.8113 120.797 14.3127 120.181 13.99C119.565 13.6527 118.898 13.484 118.179 13.484C117.446 13.484 116.771 13.6527 116.155 13.99C115.554 14.3127 115.07 14.8113 114.703 15.486C114.336 16.1607 114.153 16.982 114.153 17.95C114.153 18.9327 114.329 19.7613 114.681 20.436C115.048 21.1107 115.532 21.6167 116.133 21.954C116.734 22.2767 117.394 22.438 118.113 22.438ZM125.519 17.928C125.519 16.696 125.769 15.618 126.267 14.694C126.766 13.7553 127.448 13.0293 128.313 12.516C129.193 12.0027 130.169 11.746 131.239 11.746C132.295 11.746 133.212 11.9733 133.989 12.428C134.767 12.8827 135.346 13.4547 135.727 14.144V11.944H137.751V24H135.727V21.756C135.331 22.46 134.737 23.0467 133.945 23.516C133.168 23.9707 132.259 24.198 131.217 24.198C130.147 24.198 129.179 23.934 128.313 23.406C127.448 22.878 126.766 22.1373 126.267 21.184C125.769 20.2307 125.519 19.1453 125.519 17.928ZM135.727 17.95C135.727 17.0407 135.544 16.2487 135.177 15.574C134.811 14.8993 134.312 14.386 133.681 14.034C133.065 13.6673 132.383 13.484 131.635 13.484C130.887 13.484 130.205 13.66 129.589 14.012C128.973 14.364 128.482 14.8773 128.115 15.552C127.749 16.2267 127.565 17.0187 127.565 17.928C127.565 18.852 127.749 19.6587 128.115 20.348C128.482 21.0227 128.973 21.5433 129.589 21.91C130.205 22.262 130.887 22.438 131.635 22.438C132.383 22.438 133.065 22.262 133.681 21.91C134.312 21.5433 134.811 21.0227 135.177 20.348C135.544 19.6587 135.727 18.8593 135.727 17.95ZM142.477 13.902C142.829 13.2127 143.327 12.6773 143.973 12.296C144.633 11.9147 145.432 11.724 146.371 11.724V13.792H145.843C143.599 13.792 142.477 15.0093 142.477 17.444V24H140.475V11.944H142.477V13.902ZM147.274 17.928C147.274 16.696 147.523 15.618 148.022 14.694C148.52 13.7553 149.202 13.0293 150.068 12.516C150.948 12.0027 151.93 11.746 153.016 11.746C153.954 11.746 154.827 11.966 155.634 12.406C156.44 12.8313 157.056 13.396 157.482 14.1V7.72H159.506V24H157.482V21.734C157.086 22.4527 156.499 23.0467 155.722 23.516C154.944 23.9707 154.035 24.198 152.994 24.198C151.923 24.198 150.948 23.934 150.068 23.406C149.202 22.878 148.52 22.1373 148.022 21.184C147.523 20.2307 147.274 19.1453 147.274 17.928ZM157.482 17.95C157.482 17.0407 157.298 16.2487 156.932 15.574C156.565 14.8993 156.066 14.386 155.436 14.034C154.82 13.6673 154.138 13.484 153.39 13.484C152.642 13.484 151.96 13.66 151.344 14.012C150.728 14.364 150.236 14.8773 149.87 15.552C149.503 16.2267 149.32 17.0187 149.32 17.928C149.32 18.852 149.503 19.6587 149.87 20.348C150.236 21.0227 150.728 21.5433 151.344 21.91C151.96 22.262 152.642 22.438 153.39 22.438C154.138 22.438 154.82 22.262 155.436 21.91C156.066 21.5433 156.565 21.0227 156.932 20.348C157.298 19.6587 157.482 18.8593 157.482 17.95Z" fill="#3A4569"/>
<path d="M163.659 24.176C162.999 24.176 162.456 23.9853 162.031 23.604C161.62 23.208 161.415 22.724 161.415 22.152C161.415 21.5653 161.62 21.074 162.031 20.678C162.456 20.282 162.999 20.084 163.659 20.084C164.304 20.084 164.832 20.282 165.243 20.678C165.668 21.074 165.881 21.5653 165.881 22.152C165.881 22.724 165.668 23.208 165.243 23.604C164.832 23.9853 164.304 24.176 163.659 24.176Z" fill="#237CFB"/>
<rect width="29" height="29" rx="6.54839" fill="#237CFB"/>
<circle cx="14.5" cy="7.01614" r="1.73454" fill="white" stroke="white" strokeWidth="1.20833"/>
<circle cx="7.01608" cy="14.5" r="1.73454" fill="white" stroke="white" strokeWidth="1.20833"/>
<path d="M7.01611 14.5H21.9839" stroke="white" strokeWidth="1.87097"/>
<path d="M14.5 21.9839V7.01614" stroke="white" strokeWidth="1.87097"/>
<circle cx="21.9839" cy="14.5" r="1.73454" fill="white" stroke="white" strokeWidth="1.20833"/>
<circle cx="14.5" cy="21.9839" r="1.73454" fill="white" stroke="white" strokeWidth="1.20833"/>
</svg>
