<svg width="24" height="24" viewBox="0 0 24 24" fill="none" xmlns="http://www.w3.org/2000/svg">
<path d="M15.8949 9.50891L15.8949 9.5089L15.8926 9.51018L12.8226 11.1702L12.821 11.1711C12.5652 11.3105 12.2877 11.38 12.0004 11.38C11.7131 11.38 11.4355 11.3105 11.1798 11.171L11.1776 11.1699L4.88915 7.78069C4.88894 7.78058 4.88873 7.78046 4.88853 7.78035C4.59345 7.61968 4.40039 7.3006 4.40039 6.94C4.40039 6.57946 4.59339 6.26042 4.88838 6.09973C4.88864 6.09959 4.88889 6.09945 4.88915 6.09931L6.85731 5.04031L6.85844 5.03969L8.42734 4.19029L8.42844 4.18969L11.1773 2.71029L11.1773 2.71029L11.1798 2.70895C11.6906 2.43035 12.3102 2.43035 12.821 2.70895L12.8232 2.71015L19.1116 6.09931C19.1119 6.09944 19.1121 6.09956 19.1123 6.09968C19.4074 6.26036 19.6004 6.57943 19.6004 6.94C19.6004 7.30064 19.4073 7.61976 19.1121 7.78041C19.112 7.7805 19.1118 7.7806 19.1116 7.78069L17.3749 8.71891L17.3727 8.72009L15.8949 9.50891Z" fill="#237CFB" stroke="#237CFB"/>
<path d="M3.8274 10.3174L3.82315 10.3152C3.53482 10.1679 3.19863 10.183 2.90941 10.3579C2.63432 10.5242 2.4707 10.8189 2.4707 11.15V16.68C2.4707 17.4509 2.89392 18.1375 3.584 18.4826L3.8274 10.3174ZM3.8274 10.3174L9.6771 13.2372C10.3687 13.583 10.7887 14.2691 10.7807 15.0247L10.7807 15.0247V15.03V20.56C10.7807 20.8911 10.6171 21.1858 10.342 21.3521L10.3347 21.3565L10.3276 21.3612C10.1842 21.4547 10.0203 21.5 9.8507 21.5C9.70603 21.5 9.56286 21.4671 9.43431 21.4028L9.434 21.4026L3.58431 18.4828L3.8274 10.3174Z" fill="#237CFB" stroke="#237CFB"/>
<path d="M22.0309 11.15V16.68C22.0309 17.63 21.5009 18.49 20.6409 18.92L14.7909 21.85C14.5909 21.95 14.3709 22 14.1509 22C13.8909 22 13.6309 21.93 13.3909 21.78C12.9709 21.52 12.7109 21.06 12.7109 20.56V15.04C12.7109 14.08 13.2409 13.22 14.1009 12.79L16.2509 11.72L17.7509 10.97L19.9509 9.87C20.4009 9.64 20.9209 9.66 21.3509 9.93C21.7709 10.19 22.0309 10.65 22.0309 11.15Z" fill="#237CFB"/>
<path d="M17.6091 9.16L16.1291 9.95L6.61914 4.6L8.18914 3.75L17.3691 8.93C17.4691 8.99 17.5491 9.07 17.6091 9.16Z" fill="#237CFB"/>
<path d="M17.75 10.97V13.24C17.75 13.65 17.41 13.99 17 13.99C16.59 13.99 16.25 13.65 16.25 13.24V11.72L17.75 10.97Z" fill="#237CFB"/>
</svg>
