<svg width="28" height="28" viewBox="0 0 28 28" fill="none" xmlns="http://www.w3.org/2000/svg">
<path d="M13.9999 2.33333C7.57159 2.33333 2.33325 7.57167 2.33325 14C2.33325 20.4283 7.57159 25.6667 13.9999 25.6667C20.4283 25.6667 25.6666 20.4283 25.6666 14C25.6666 7.57167 20.4283 2.33333 13.9999 2.33333ZM19.5766 11.3167L12.9616 17.9317C12.7983 18.095 12.5766 18.1883 12.3433 18.1883C12.1099 18.1883 11.8883 18.095 11.7249 17.9317L8.42325 14.63C8.08492 14.2917 8.08492 13.7317 8.42325 13.3933C8.76159 13.055 9.32159 13.055 9.65992 13.3933L12.3433 16.0767L18.3399 10.08C18.6783 9.74167 19.2383 9.74167 19.5766 10.08C19.9149 10.4183 19.9149 10.9667 19.5766 11.3167Z" fill="#70CF97"/>
</svg>
