<svg width="28" height="28" viewBox="0 0 28 28" fill="none" xmlns="http://www.w3.org/2000/svg">
<path d="M25.3866 18.5733L17.92 5.13333C16.9166 3.325 15.5283 2.33333 14 2.33333C12.4716 2.33333 11.0833 3.325 10.08 5.13333L2.61331 18.5733C1.66831 20.2883 1.56331 21.9333 2.32164 23.2283C3.07997 24.5233 4.57331 25.235 6.53331 25.235H21.4666C23.4266 25.235 24.92 24.5233 25.6783 23.2283C26.4366 21.9333 26.3316 20.2767 25.3866 18.5733ZM13.125 10.5C13.125 10.0217 13.5216 9.62499 14 9.62499C14.4783 9.62499 14.875 10.0217 14.875 10.5V16.3333C14.875 16.8117 14.4783 17.2083 14 17.2083C13.5216 17.2083 13.125 16.8117 13.125 16.3333V10.5ZM14.8283 20.6617C14.77 20.7083 14.7116 20.755 14.6533 20.8017C14.5833 20.8483 14.5133 20.8833 14.4433 20.9067C14.3733 20.9417 14.3033 20.965 14.2216 20.9767C14.1516 20.9883 14.07 21 14 21C13.93 21 13.8483 20.9883 13.7666 20.9767C13.6966 20.965 13.6266 20.9417 13.5566 20.9067C13.4866 20.8833 13.4166 20.8483 13.3466 20.8017C13.2883 20.755 13.23 20.7083 13.1716 20.6617C12.9616 20.44 12.8333 20.1367 12.8333 19.8333C12.8333 19.53 12.9616 19.2267 13.1716 19.005C13.23 18.9583 13.2883 18.9117 13.3466 18.865C13.4166 18.8183 13.4866 18.7833 13.5566 18.76C13.6266 18.725 13.6966 18.7017 13.7666 18.69C13.9183 18.655 14.0816 18.655 14.2216 18.69C14.3033 18.7017 14.3733 18.725 14.4433 18.76C14.5133 18.7833 14.5833 18.8183 14.6533 18.865C14.7116 18.9117 14.77 18.9583 14.8283 19.005C15.0383 19.2267 15.1666 19.53 15.1666 19.8333C15.1666 20.1367 15.0383 20.44 14.8283 20.6617Z" fill="#FF6270"/>
</svg>
