<svg width="30" height="30" viewBox="0 0 30 30" fill="none" xmlns="http://www.w3.org/2000/svg">
<path d="M15.0002 7.49999L8.05018 12.5L3.98768 9.74997C3.26268 9.26247 3.2502 8.21249 3.9627 7.69999L8.75018 4.24998C9.17518 3.94998 9.7502 3.9375 10.1752 4.225L15.0002 7.49999Z" fill="#D8DCE9"/>
<path d="M26.0125 9.75L21.95 12.5L15 7.50002L19.825 4.23754C20.2625 3.95004 20.825 3.95002 21.25 4.26252L26.0375 7.71254C26.75 8.21254 26.7375 9.2625 26.0125 9.75Z" fill="#D8DCE9"/>
<path d="M14.9999 17.5L9.4499 21.25L6.2499 18.95L3.9499 17.3C3.2499 16.7875 3.26239 15.7375 3.97489 15.25L8.03739 12.5L14.9999 17.5Z" fill="#D8DCE9"/>
<path d="M26.0123 15.25C26.7373 15.7375 26.7498 16.7875 26.0373 17.3L23.7373 18.95L20.5373 21.25L14.9873 17.5L21.9373 12.5L26.0123 15.25Z" fill="#D8DCE9"/>
<path d="M23.35 21.675C23.5125 21.55 23.75 21.675 23.75 21.875V22.7875C23.75 23.275 23.4625 23.7125 23.025 23.925L15.525 27.3875C15.1875 27.5375 14.8125 27.5375 14.475 27.3875L6.97498 23.925C6.53748 23.7125 6.25 23.275 6.25 22.7875V21.875C6.25 21.675 6.47501 21.55 6.65001 21.675L9.0625 23.4125C9.275 23.5625 9.56251 23.575 9.77501 23.425L14.65 20.125C14.8625 19.9875 15.1375 19.9875 15.35 20.125L20.225 23.425C20.4375 23.575 20.725 23.5625 20.9375 23.4125L23.35 21.675Z" fill="#D8DCE9"/>
</svg>
