<svg width="24" height="24" viewBox="0 0 24 24" fill="none" xmlns="http://www.w3.org/2000/svg">
<path d="M21.0602 11.82L20.9002 11.6C20.6202 11.26 20.2902 10.99 19.9102 10.79C19.4002 10.5 18.8202 10.35 18.2202 10.35H5.7702C5.1702 10.35 4.6002 10.5 4.0802 10.79C3.6902 11 3.3402 11.29 3.0502 11.65C2.4802 12.38 2.2102 13.28 2.3002 14.18L2.6702 18.85C2.8002 20.26 2.9702 22 6.1402 22H17.8602C21.0302 22 21.1902 20.26 21.3302 18.84L21.7002 14.19C21.7902 13.35 21.5702 12.51 21.0602 11.82ZM14.3902 17.34H9.6002C9.2102 17.34 8.9002 17.02 8.9002 16.64C8.9002 16.26 9.2102 15.94 9.6002 15.94H14.3902C14.7802 15.94 15.0902 16.26 15.0902 16.64C15.0902 17.03 14.7802 17.34 14.3902 17.34Z" fill="url(#paint0_linear_290_2037)"/>
<path opacity="0.4" d="M3.37988 11.31C3.59988 11.11 3.81988 10.93 4.07988 10.79C4.58988 10.5 5.16988 10.35 5.76988 10.35H18.2299C18.8299 10.35 19.3999 10.5 19.9199 10.79C20.1799 10.93 20.4099 11.11 20.6199 11.32V10.79V9.82C20.6199 6.25 19.5299 5.16 15.9599 5.16H13.5799C13.1399 5.16 13.1299 5.15 12.8699 4.81L11.6699 3.2C11.0999 2.46 10.6499 2 9.21988 2H8.03988C4.46988 2 3.37988 3.09 3.37988 6.66V10.8V11.31Z" fill="url(#paint1_linear_290_2037)"/>
<defs>
<linearGradient id="paint0_linear_290_2037" x1="2.2832" y1="10.35" x2="23.3182" y2="15.6187" gradientUnits="userSpaceOnUse">
<stop stop-color="#237CFB"/>
<stop stop-color="#4F97FF"/>
<stop offset="1" stop-color="#4F97FF"/>
</linearGradient>
<linearGradient id="paint1_linear_290_2037" x1="3.37988" y1="2" x2="21.7884" y2="7.11216" gradientUnits="userSpaceOnUse">
<stop stop-color="#237CFB"/>
<stop stop-color="#4F97FF"/>
<stop offset="1" stop-color="#4F97FF"/>
</linearGradient>
</defs>
</svg>
