<svg width="24" height="24" viewBox="0 0 24 24" fill="none" xmlns="http://www.w3.org/2000/svg">
<path d="M20.6558 12.1141L20.6581 12.1172C21.0923 12.7046 21.2799 13.4191 21.203 14.1367L21.2029 14.1367L21.2018 14.1503L20.8321 18.7956C20.7593 19.5339 20.686 20.1739 20.3297 20.6549C20.0051 21.093 19.3563 21.5 17.8602 21.5H6.1402C4.644 21.5 3.99209 21.0929 3.66628 20.6552C3.30961 20.176 3.23578 19.5378 3.16838 18.8073L2.79864 14.1405L2.79874 14.1405L2.79772 14.1302C2.72116 13.3647 2.94944 12.593 3.44195 11.9607C3.69026 11.6533 3.98786 11.4076 4.31725 11.2302L4.31727 11.2303L4.32373 11.2267C4.76988 10.9779 5.25613 10.85 5.7702 10.85H18.2202C18.7365 10.85 19.2309 10.9789 19.663 11.2246L19.6701 11.2287L19.6773 11.2325C19.9929 11.3985 20.2682 11.622 20.505 11.9067L20.6558 12.1141ZM9.6002 17.84H14.3902C15.0563 17.84 15.5902 17.3061 15.5902 16.64C15.5902 15.9885 15.061 15.44 14.3902 15.44H9.6002C8.92942 15.44 8.4002 15.9885 8.4002 16.64C8.4002 17.2915 8.92942 17.84 9.6002 17.84Z" fill="#237CFB" stroke="#237CFB"/>
<path d="M20.0628 8.62926C20.0537 8.63508 20.0401 8.64077 20.0238 8.64311C20.0074 8.64544 19.992 8.64396 19.9782 8.63935C19.4201 8.4525 18.835 8.36 18.2309 8.36H5.77086C5.16044 8.36 4.55839 8.45874 3.99501 8.64796C3.96747 8.65721 3.9305 8.65343 3.90083 8.63455C3.88773 8.62621 3.88241 8.61873 3.88113 8.61658C3.88099 8.61634 3.88092 8.61632 3.88088 8.61628C3.88083 8.61621 3.88086 8.61607 3.88086 8.61489V6.66C3.88086 4.89275 4.15882 3.91165 4.72566 3.3448C5.29251 2.77796 6.27361 2.5 8.04086 2.5H9.22086C9.88339 2.5 10.2581 2.6067 10.5207 2.75741C10.7904 2.91218 10.996 3.14198 11.2831 3.51297L12.4794 5.10807C12.4832 5.1132 12.487 5.11835 12.4908 5.12352C12.5442 5.19626 12.6009 5.27347 12.6556 5.33675C12.7195 5.41064 12.8044 5.49452 12.9237 5.55833C13.1339 5.67087 13.3732 5.67039 13.552 5.67004C13.5618 5.67002 13.5714 5.67 13.5809 5.67H15.9609C17.5037 5.67 18.4509 5.88221 19.0429 6.31567C19.6032 6.72602 19.9407 7.40947 20.0628 8.62926Z" fill="#237CFB" stroke="#237CFB"/>
</svg>
