<svg width="30" height="30" viewBox="0 0 30 30" fill="none" xmlns="http://www.w3.org/2000/svg">
<path d="M7.42529 20.9625L5.35032 24.4875C5.20032 24.75 4.81275 24.75 4.65025 24.4875L2.53782 20.9625C2.37532 20.6875 2.57528 20.35 2.88778 20.35H7.07525C7.38775 20.35 7.57529 20.7 7.42529 20.9625Z" fill="#D8DCE9"/>
<path d="M14.6125 10.5125L9.67501 18.6C9.56251 18.7875 9.36253 18.8875 9.15003 18.8875H2.81252C2.33752 18.8875 2.03753 18.3875 2.27503 17.9875L10.3501 4.66252C10.5876 4.27502 11.175 4.26252 11.4125 4.66252L14.6125 9.92501C14.725 10.1 14.725 10.325 14.6125 10.5125Z" fill="#D8DCE9"/>
<path d="M17.1498 18.1125H12.7998C12.5498 18.1125 12.3873 17.8375 12.5123 17.6125L14.6873 13.925C14.8123 13.7125 15.1248 13.7125 15.2498 13.925L17.4248 17.6125C17.5623 17.8375 17.3998 18.1125 17.1498 18.1125Z" fill="#D8DCE9"/>
<path d="M17.0748 4.24999L15.2624 7.33749C15.1374 7.54999 14.8123 7.54999 14.6873 7.33749L12.8748 4.24999C12.7498 4.02499 12.8999 3.75 13.1624 3.75H16.7873C17.0498 3.75 17.1998 4.02499 17.0748 4.24999Z" fill="#D8DCE9"/>
<path d="M27.7124 17.9625C27.9624 18.375 27.6499 18.9 27.1749 18.9H21.0874C20.8749 18.9 20.6874 18.7875 20.5749 18.6125L15.8124 10.525C15.6999 10.3375 15.6999 10.1125 15.8124 9.92501L18.8999 4.66252C19.1249 4.27502 19.6999 4.26252 19.9249 4.66252C21.4499 7.30002 26.1124 15.225 27.7124 17.9625Z" fill="#D8DCE9"/>
<path d="M27.4124 20.9625C26.7249 22.125 25.9874 23.375 25.3124 24.5125C25.1499 24.7875 24.7624 24.775 24.5999 24.5L22.5249 20.9625C22.3624 20.6875 22.5624 20.3375 22.8874 20.3375H27.0499C27.3749 20.35 27.5749 20.6875 27.4124 20.9625Z" fill="#D8DCE9"/>
<path d="M22.5249 26.25H7.42487C6.97487 26.25 6.69984 25.7625 6.92484 25.375L9.83736 20.425C9.93736 20.25 10.1249 20.1375 10.3374 20.1375H19.6124C19.8124 20.1375 20.0124 20.25 20.1124 20.425L23.0248 25.375C23.2498 25.7625 22.9749 26.25 22.5249 26.25Z" fill="#D8DCE9"/>
</svg>
