<svg width="28" height="28" viewBox="0 0 28 28" fill="none" xmlns="http://www.w3.org/2000/svg">
<path d="M13.965 2.33334C7.52501 2.33334 2.29834 7.56001 2.29834 14C2.29834 20.44 7.52501 25.6667 13.965 25.6667C20.405 25.6667 25.6317 20.44 25.6317 14C25.6317 7.56001 20.4167 2.33334 13.965 2.33334ZM20.3 19.1683C18.865 21.2333 16.5083 22.4583 14 22.4583C11.4917 22.4583 9.13501 21.2333 7.70001 19.1683C7.42001 18.7717 7.52501 18.2233 7.92167 17.955C8.31834 17.675 8.86667 17.78 9.13501 18.1767C10.2433 19.7633 12.0633 20.72 14 20.72C15.9367 20.72 17.7567 19.775 18.865 18.1767C19.145 17.78 19.6817 17.6867 20.0783 17.955C20.4867 18.2233 20.58 18.7717 20.3 19.1683Z" fill="#237CFB"/>
</svg>
