<svg width="90" height="88" viewBox="0 0 90 88" fill="none" xmlns="http://www.w3.org/2000/svg">
<g filter="url(#filter0_d_88_1396)">
<path d="M53.04 29.82L47.28 25.79C45.71 24.69 43.3 24.75 41.79 25.92L36.78 29.83C35.78 30.61 34.99 32.21 34.99 33.47V40.37C34.99 42.92 37.06 45 39.61 45H50.39C52.94 45 55.01 42.93 55.01 40.38V33.6C55.01 32.25 54.14 30.59 53.04 29.82ZM45.75 41C45.75 41.41 45.41 41.75 45 41.75C44.59 41.75 44.25 41.41 44.25 41V38C44.25 37.59 44.59 37.25 45 37.25C45.41 37.25 45.75 37.59 45.75 38V41Z" fill="#237CFB"/>
</g>
<defs>
<filter id="filter0_d_88_1396" x="-1" y="-2" width="92" height="92" filterUnits="userSpaceOnUse" color-interpolation-filters="sRGB">
<feFlood flood-opacity="0" result="BackgroundImageFix"/>
<feColorMatrix in="SourceAlpha" type="matrix" values="0 0 0 0 0 0 0 0 0 0 0 0 0 0 0 0 0 0 127 0" result="hardAlpha"/>
<feOffset dy="9"/>
<feGaussianBlur stdDeviation="17"/>
<feComposite in2="hardAlpha" operator="out"/>
<feColorMatrix type="matrix" values="0 0 0 0 0.247059 0 0 0 0 0.549019 0 0 0 0 1 0 0 0 0.25 0"/>
<feBlend mode="normal" in2="BackgroundImageFix" result="effect1_dropShadow_88_1396"/>
<feBlend mode="normal" in="SourceGraphic" in2="effect1_dropShadow_88_1396" result="shape"/>
</filter>
</defs>
</svg>
