<svg width="24" height="24" viewBox="0 0 24 24" fill="none" xmlns="http://www.w3.org/2000/svg">
<path d="M14.3205 11.22V10.72V3.52C14.3205 3.1389 14.268 2.87363 14.1989 2.70625C14.1307 2.5413 14.0652 2.51094 14.051 2.5056C14.0365 2.50015 13.9665 2.47997 13.8056 2.55936C13.6426 2.63976 13.4277 2.80452 13.176 3.09012L14.3205 11.22ZM14.3205 11.22H14.8205H17.9105C18.5524 11.22 18.7277 11.4187 18.7585 11.4869C18.789 11.5546 18.8226 11.8171 18.3962 12.2985L18.395 12.2998L11.625 19.9998L11.625 19.9999L10.8253 20.9095C10.8252 20.9096 10.8252 20.9097 10.8251 20.9098C10.5734 21.1954 10.3585 21.3602 10.1954 21.4406C10.0345 21.52 9.96449 21.4998 9.94999 21.4944C9.93575 21.4891 9.8703 21.4587 9.80213 21.2937C9.73298 21.1264 9.6805 20.8611 9.6805 20.48V13.28V12.78H9.1805H6.0905C5.44863 12.78 5.27326 12.5813 5.24249 12.5131C5.21196 12.4454 5.1784 12.1829 5.6048 11.7015L5.606 11.7001L12.376 4.00015L12.376 4.00012L13.1757 3.09051L14.3205 11.22Z" fill="#237CFB" stroke="#237CFB"/>
</svg>
