<svg width="20" height="20" viewBox="0 0 20 20" fill="none" xmlns="http://www.w3.org/2000/svg">
<path d="M17.5584 4.35834C16.2167 4.22501 14.875 4.12501 13.525 4.05001V4.04167L13.3417 2.95834C13.2167 2.19167 13.0334 1.04167 11.0834 1.04167H8.90005C6.95838 1.04167 6.77505 2.14167 6.64172 2.95001L6.46672 4.01667C5.69172 4.06667 4.91672 4.11667 4.14172 4.19167L2.44172 4.35834C2.09172 4.39167 1.84172 4.70001 1.87505 5.04167C1.90838 5.38334 2.20838 5.63334 2.55838 5.60001L4.25838 5.43334C8.62505 5.00001 13.0251 5.16667 17.4417 5.60834C17.4667 5.60834 17.4834 5.60834 17.5084 5.60834C17.8251 5.60834 18.1 5.36667 18.1334 5.04167C18.1584 4.70001 17.9084 4.39167 17.5584 4.35834Z" fill="#D8DCE9"/>
<path d="M16.025 6.78333C15.825 6.575 15.55 6.45833 15.2666 6.45833H4.73329C4.44995 6.45833 4.16662 6.575 3.97495 6.78333C3.78329 6.99166 3.67495 7.27499 3.69162 7.56666L4.20829 16.1167C4.29995 17.3833 4.41662 18.9667 7.32495 18.9667H12.675C15.5833 18.9667 15.7 17.3917 15.7916 16.1167L16.3083 7.575C16.325 7.275 16.2166 6.99166 16.025 6.78333ZM11.3833 14.7917H8.60829C8.26662 14.7917 7.98329 14.5083 7.98329 14.1667C7.98329 13.825 8.26662 13.5417 8.60829 13.5417H11.3833C11.725 13.5417 12.0083 13.825 12.0083 14.1667C12.0083 14.5083 11.725 14.7917 11.3833 14.7917ZM12.0833 11.4583H7.91662C7.57495 11.4583 7.29162 11.175 7.29162 10.8333C7.29162 10.4917 7.57495 10.2083 7.91662 10.2083H12.0833C12.425 10.2083 12.7083 10.4917 12.7083 10.8333C12.7083 11.175 12.425 11.4583 12.0833 11.4583Z" fill="#D8DCE9"/>
</svg>
