<svg width="20" height="20" viewBox="0 0 20 20" fill="none" xmlns="http://www.w3.org/2000/svg">
<path fill-rule="evenodd" clip-rule="evenodd" d="M2.24531 0.0634896C1.98803 0.155414 1.73202 0.38025 1.56371 0.662128C1.44075 0.868091 1.28662 1.40889 0.706901 3.66898C0.318075 5.18466 0 6.51649 0 6.62861C0 7.33396 0.467747 8.14175 1.13362 8.58645C1.9193 9.11109 3.02953 9.11607 3.82967 8.59847C4.37869 8.2433 4.81258 7.60687 4.93709 6.97401L4.99258 6.69189L5.05315 6.98894C5.21897 7.80171 5.83962 8.53194 6.61502 8.82659C7.92455 9.32415 9.40305 8.62396 9.86249 7.28861C9.9123 7.14382 9.95305 6.97579 9.95305 6.91527C9.95305 6.8548 9.97418 6.80527 10 6.80527C10.0258 6.80527 10.0469 6.85715 10.0469 6.92053C10.0469 7.1079 10.2486 7.60814 10.4411 7.89809C10.9436 8.65504 11.9567 9.10607 12.8383 8.96523C13.4645 8.86518 13.8888 8.64293 14.307 8.19588C14.6359 7.84424 14.8575 7.42772 14.9456 6.99504L15.0074 6.69189L15.0629 6.97401C15.187 7.60494 15.6012 8.21518 16.1571 8.58645C16.9428 9.11109 18.053 9.11607 18.8531 8.59847C19.514 8.17095 20 7.33598 20 6.62795C20 6.51541 19.682 5.18358 19.2932 3.66832C18.6961 1.34025 18.5623 0.873255 18.4301 0.655039C18.2512 0.359687 17.9645 0.11748 17.7101 0.0468699C17.5928 0.0142877 15.0449 -0.00111139 9.97653 6.23155e-05C3.86056 0.00151771 2.38493 0.0136305 2.24531 0.0634896ZM4.78756 9.76692C3.73263 10.4809 2.4239 10.6844 1.30357 10.3087L0.983474 10.2013L0.996432 14.3366C1.00934 18.4625 1.00962 18.4725 1.11164 18.7214C1.33521 19.2668 1.80052 19.7078 2.35958 19.904C2.62718 19.9979 2.70784 19.9987 10.0836 19.9866L17.5372 19.9743L17.8569 19.8169C18.4079 19.5456 18.8312 19.0205 18.9643 18.4431C18.9943 18.3131 19.0122 16.7558 19.013 14.2196L19.0141 10.2021L18.6952 10.3091C17.5831 10.682 16.2184 10.4733 15.2471 9.78161L15.0247 9.62325L14.6939 9.83724C13.9909 10.292 13.3411 10.4817 12.4883 10.4811C11.6641 10.4805 10.9683 10.273 10.3101 9.83166L9.99836 9.62255L9.72521 9.80903C9.05023 10.2698 8.37714 10.4757 7.53521 10.4791C6.61798 10.4827 5.83916 10.2322 5.09272 9.69335C5.00624 9.63095 4.97855 9.63767 4.78756 9.76692ZM15.1174 12.1532C15.4646 12.272 15.9442 12.5484 16.2207 12.7891L16.4085 12.9526L15.99 13.3734L15.5716 13.7943L15.3764 13.6344C15.2691 13.5464 15.056 13.4158 14.9028 13.3441C14.6538 13.2275 14.5723 13.2137 14.1315 13.2137C13.6899 13.2137 13.6114 13.2271 13.3785 13.3415C12.3988 13.8232 12.0414 15.0921 12.6293 16.0017C12.9786 16.5423 13.5109 16.8209 14.2019 16.8249C14.5656 16.8269 14.6623 16.8096 14.8967 16.7004C15.3816 16.4746 15.5814 16.2743 15.7174 15.878L15.7698 15.7255H14.8567H13.9437V15.1386V14.5518H15.4399H16.9361L16.9652 14.7278C17.0111 15.0056 17.0001 15.6035 16.9441 15.8757C16.916 16.0126 16.8088 16.3008 16.706 16.5161C16.1096 17.7651 14.539 18.3341 13.1148 17.8171C11.8376 17.3535 11.0128 16.1345 11.096 14.8334C11.1794 13.5292 12.1236 12.4143 13.4233 12.0853C13.8241 11.9839 14.7285 12.0201 15.1174 12.1532Z" fill="#237CFB"/>
</svg>
