<svg width="20" height="20" viewBox="0 0 20 20" fill="none" xmlns="http://www.w3.org/2000/svg">
<path fill-rule="evenodd" clip-rule="evenodd" d="M3.48244 0.00666547C2.72555 0.0679813 2.0307 0.336268 1.43266 0.798085C1.28746 0.91022 0.936943 1.25758 0.818119 1.40712C0.612176 1.66628 0.384085 2.05792 0.267431 2.35268C0.160868 2.62195 0.0860349 2.89889 0.0342128 3.21575L0.00516047 3.39344L0.00111167 9.87279C-0.0018456 14.5805 0.000946674 16.4025 0.0113035 16.5362C0.0824684 17.4555 0.48349 18.3068 1.14591 18.9448C1.79258 19.5676 2.60124 19.9246 3.51108 19.989C3.79524 20.0092 16.5184 19.9986 16.6633 19.9782C17.3229 19.8849 17.819 19.7033 18.3196 19.3718C18.8966 18.9897 19.3862 18.4161 19.6621 17.799C19.824 17.4369 19.9153 17.1091 19.9783 16.6631C19.9988 16.5183 20.0093 3.79509 19.9892 3.51092C19.9335 2.7234 19.6594 2.01312 19.1787 1.41074C18.535 0.604009 17.5878 0.0987471 16.5554 0.0114377C16.4176 -0.000213677 3.62502 -0.00488439 3.48244 0.00666547ZM4.94204 3.34941C5.45528 3.43658 5.86889 3.73207 6.08743 4.16766C6.15312 4.29858 6.2123 4.48464 6.23787 4.64061C6.2682 4.8255 6.25657 5.1024 6.21112 5.27767C6.1395 5.55389 6.01254 5.77862 5.81936 5.97108C5.59787 6.19175 5.32464 6.33736 4.99828 6.40867C4.662 6.48214 4.27549 6.46777 3.9584 6.37002C3.3837 6.19285 2.98826 5.74617 2.88643 5.15916C2.86144 5.01509 2.86146 4.76015 2.88647 4.60589C2.96195 4.1405 3.25327 3.74102 3.67666 3.52236C4.03988 3.33475 4.49195 3.27297 4.94204 3.34941ZM14.0233 7.51785C14.441 7.57703 14.7694 7.6759 15.1058 7.8438C15.5794 8.08015 15.9593 8.4177 16.258 8.8676C16.6068 9.39294 16.8253 10.0442 16.9104 10.812C16.9523 11.1902 16.9565 11.5303 16.9526 14.2643L16.9488 16.9741L15.3845 16.9773L13.8202 16.9805L13.8202 14.3437C13.8201 11.8003 13.8166 11.5206 13.7815 11.2689C13.6555 10.3659 13.2616 9.92247 12.5427 9.87422C12.0422 9.84063 11.6509 9.98033 11.3256 10.3088C11.0806 10.5561 10.8956 10.8957 10.829 11.2203C10.809 11.3176 10.8067 11.5521 10.8002 14.15L10.7931 16.9741L9.22403 16.9773L7.65493 16.9805L7.64711 15.3527C7.64281 14.4574 7.6374 12.3641 7.63508 10.701L7.63088 7.67705H9.20082H10.7708L10.7786 7.72464C10.783 7.75082 10.7873 7.96357 10.7882 8.19742C10.7891 8.43128 10.7935 8.70204 10.7978 8.79911L10.8058 8.97561L10.8897 8.84988C11.0806 8.56375 11.3276 8.286 11.5539 8.10292C11.9738 7.76325 12.4717 7.56777 13.0904 7.49969C13.2504 7.48208 13.8537 7.49383 14.0233 7.51785ZM6.17108 11.1325C6.17572 13.033 6.17953 15.1262 6.17953 15.7842V16.9804H4.63069C3.40267 16.9804 3.08083 16.9771 3.07696 16.9645C3.07428 16.9558 3.06865 14.8626 3.06447 12.3129L3.05686 7.67705H4.60975H6.16262L6.17108 11.1325Z" fill="#237CFB"/>
</svg>
