<svg width="20" height="17" viewBox="0 0 20 17" fill="none" xmlns="http://www.w3.org/2000/svg">
<path fill-rule="evenodd" clip-rule="evenodd" d="M13.3689 0.00555314C13.1454 0.034166 12.739 0.130549 12.5096 0.209365C11.4611 0.569591 10.614 1.32855 10.1307 2.34085C10.0258 2.56062 9.86274 3.01705 9.84001 3.1547C9.8341 3.19058 9.81142 3.31288 9.78964 3.42648C9.73093 3.7327 9.73433 4.50583 9.79568 4.80168L9.83964 5.01367H9.75652C9.37027 5.01367 8.33541 4.86236 7.73762 4.71849C5.93897 4.28563 4.37107 3.49271 2.91084 2.27747C2.60819 2.0256 1.81355 1.23514 1.5685 0.942188L1.39099 0.729984L1.33677 0.822606C1.1325 1.17157 0.950472 1.71619 0.866351 2.23007C0.838042 2.40301 0.831411 3.03888 0.855458 3.27428C0.910314 3.81151 1.12628 4.44402 1.41873 4.92407C1.68184 5.35595 2.08335 5.80393 2.45071 6.07549C2.62639 6.20538 2.62974 6.20947 2.55942 6.2091C2.43147 6.20838 2.04678 6.14683 1.8067 6.08867C1.57021 6.03136 1.17544 5.88551 0.949232 5.7719C0.880809 5.73753 0.819648 5.70942 0.813343 5.70942C0.791123 5.70942 0.802168 6.02901 0.832977 6.27733C1.0272 7.84307 2.12184 9.16839 3.62573 9.65864C3.78575 9.7108 3.93927 9.75348 3.96688 9.75348C3.99452 9.75348 4.02244 9.76205 4.02889 9.77252C4.04035 9.79107 3.8171 9.83843 3.50875 9.88287C3.28194 9.91557 2.71388 9.91013 2.46695 9.87293C2.34837 9.85506 2.24781 9.84397 2.24346 9.8483C2.22842 9.86334 2.35109 10.1787 2.45606 10.3949C2.93535 11.3818 3.83389 12.1633 4.87852 12.5016C5.19004 12.6025 5.28438 12.6231 5.62862 12.6659C5.74223 12.6799 5.88123 12.6982 5.9375 12.7064L6.03984 12.7213L5.77443 12.9095C5.06348 13.4135 4.24966 13.8185 3.44353 14.0693C3.1477 14.1614 2.58075 14.3002 2.38903 14.3276C2.34717 14.3335 2.2102 14.3534 2.08464 14.3716C1.64061 14.4363 1.26249 14.456 0.758357 14.441C0.489296 14.4329 0.210452 14.4183 0.138702 14.4085C0.066953 14.3987 0.00472666 14.3936 0.000443435 14.3973C-0.0112539 14.4071 0.209604 14.545 0.528715 14.7272C1.86273 15.4888 3.32897 15.972 4.91113 16.1712C5.28116 16.2177 5.39433 16.2218 6.32438 16.2215C7.40142 16.2212 7.7143 16.1997 8.38989 16.0797C8.52741 16.0553 8.69202 16.0263 8.75571 16.0152C8.95576 15.9807 9.65312 15.8026 9.93505 15.7141C11.3524 15.269 12.6149 14.5788 13.7648 13.6205C14.1042 13.3376 14.8364 12.6054 15.1236 12.2616C16.545 10.5603 17.4646 8.55196 17.8257 6.35995C17.9175 5.80289 17.9603 5.27951 17.9683 4.61609L17.9753 4.0337L18.1711 3.88405C18.3788 3.72531 18.404 3.7038 18.7533 3.3875C18.9606 3.19984 19.2282 2.91862 19.4893 2.61395C19.6118 2.47106 19.9996 1.9454 20 1.92174C20.0002 1.91326 19.9342 1.93618 19.8535 1.97264C19.436 2.16128 18.5316 2.41936 18 2.50156C17.8744 2.52098 17.7545 2.54044 17.7336 2.54479C17.6752 2.55696 17.6863 2.54551 17.8095 2.46665C18.4959 2.02724 19.1214 1.2421 19.389 0.4841C19.4262 0.37852 19.4567 0.287898 19.4567 0.282723C19.4567 0.277549 19.42 0.296465 19.3752 0.324773C19.2807 0.384369 18.798 0.62973 18.5774 0.730245C18.1644 0.918402 17.4881 1.14024 17.0192 1.24132L16.8537 1.277L16.7257 1.15326C16.1489 0.596095 15.3931 0.204212 14.6066 0.0545602C14.4107 0.017294 14.2615 0.00607495 13.9016 0.00155256C13.6504 -0.00160007 13.4107 0.000204542 13.3689 0.00555314Z" fill="#237CFB"/>
</svg>
