<svg width="24" height="24" viewBox="0 0 24 24" fill="none" xmlns="http://www.w3.org/2000/svg">
<path d="M9.5 19.5V18H4.5C3.95 18 3.45 17.78 3.09 17.41C2.72 17.05 2.5 16.55 2.5 16C2.5 14.97 3.3 14.11 4.31 14.01C4.37 14 4.43 14 4.5 14H19.5C19.57 14 19.63 14 19.69 14.01C20.17 14.05 20.59 14.26 20.91 14.59C21.32 14.99 21.54 15.56 21.49 16.18C21.4 17.23 20.45 18 19.39 18H14.5V19.5C14.5 20.88 13.38 22 12 22C10.62 22 9.5 20.88 9.5 19.5Z" fill="#237CFB"/>
<path d="M17.1896 2H13.2496C12.9696 2 12.7496 2.22 12.7496 2.5V4C12.7496 4.41 12.4096 4.75 11.9996 4.75C11.9096 4.75 11.8296 4.73 11.7496 4.7C11.4596 4.6 11.2496 4.32 11.2496 4V2.5C11.2496 2.22 11.0296 2 10.7496 2H9.2396C8.9596 2 8.7396 2.22 8.7396 2.5V7C8.7396 7.41 8.3996 7.75 7.9896 7.75C7.5796 7.75 7.2396 7.41 7.2396 7V4.75V2.5C7.2396 2.23 7.0396 2.02 6.7696 2H6.7396C4.9996 2.04 3.6496 3.55 3.8296 5.3L4.1996 12.05C4.2296 12.58 4.6696 13 5.1996 13H18.7996C19.3296 13 19.7696 12.58 19.7996 12.05L20.1696 5.3C20.3496 3.53 18.9596 2 17.1896 2Z" fill="#237CFB"/>
</svg>
